<svg id="9f18d0ad-6184-4b59-bf98-90ad22f40231" data-name="レイヤー 1" xmlns="http://www.w3.org/2000/svg" width="79.89005" height="9.56794" viewBox="0 0 79.89005 9.56794">
  <defs>
    <style>
      .\35 1b81a43-8937-4536-b11b-7725084a3346 {
        fill: #ec86b5;
      }

      .\37 d48eef5-6197-4d9e-bb9f-a8e9da4322b5 {
        fill: none;
      }
    </style>
  </defs>
  <title>line</title>
  <rect class="51b81a43-8937-4536-b11b-7725084a3346" x="-3.05498" y="4.53397" width="10" height="0.5" transform="translate(-3.21567 4.97548) rotate(-70)"/>
  <rect class="51b81a43-8937-4536-b11b-7725084a3346" x="4.94502" y="4.53397" width="10" height="0.5" transform="translate(2.04817 12.49302) rotate(-70)"/>
  <rect class="51b81a43-8937-4536-b11b-7725084a3346" x="12.94502" y="4.53397" width="10" height="0.5" transform="translate(7.312 20.01056) rotate(-70)"/>
  <rect class="51b81a43-8937-4536-b11b-7725084a3346" x="20.94502" y="4.53397" width="10" height="0.5" transform="translate(12.57584 27.5281) rotate(-70)"/>
  <rect class="51b81a43-8937-4536-b11b-7725084a3346" x="28.94502" y="4.53397" width="10" height="0.5" transform="translate(17.83968 35.04564) rotate(-70)"/>
  <rect class="51b81a43-8937-4536-b11b-7725084a3346" x="36.94502" y="4.53397" width="10" height="0.5" transform="translate(23.10352 42.56318) rotate(-70)"/>
  <rect class="51b81a43-8937-4536-b11b-7725084a3346" x="44.94502" y="4.53397" width="10" height="0.5" transform="translate(28.36736 50.08073) rotate(-70)"/>
  <rect class="51b81a43-8937-4536-b11b-7725084a3346" x="52.94502" y="4.53397" width="10" height="0.5" transform="translate(33.6312 57.59827) rotate(-70)"/>
  <rect class="51b81a43-8937-4536-b11b-7725084a3346" x="60.94502" y="4.53397" width="10" height="0.5" transform="translate(38.89504 65.11581) rotate(-70)"/>
  <rect class="51b81a43-8937-4536-b11b-7725084a3346" x="68.94502" y="4.53397" width="10" height="0.5" transform="translate(44.15888 72.63335) rotate(-70)"/>
  <rect class="7d48eef5-6197-4d9e-bb9f-a8e9da4322b5" x="72.94502" y="4.53397" width="10" height="0.5" transform="translate(46.7908 76.39212) rotate(-70)"/>
</svg>
